<mxfile host="app.diagrams.net" agent="Mozilla/5.0 (Windows NT 10.0; Win64; x64) AppleWebKit/537.36 (KHTML, like Gecko) Chrome/139.0.0.0 Safari/537.36 Edg/139.0.0.0" version="28.0.9" pages="2">
  <diagram id="gJM2ljMXdyF7MIMB0QPM" name="Página-1">
    <mxGraphModel dx="1418" dy="786" grid="1" gridSize="10" guides="1" tooltips="1" connect="1" arrows="1" fold="1" page="1" pageScale="1" pageWidth="827" pageHeight="1169" math="0" shadow="0">
      <root>
        <mxCell id="0" />
        <mxCell id="1" parent="0" />
        <mxCell id="2" value="Inicio" style="whiteSpace=wrap;strokeWidth=2;" parent="1" vertex="1">
          <mxGeometry x="245" y="8" width="99" height="54" as="geometry" />
        </mxCell>
        <mxCell id="3" value="Realizar consulta a la base de datos" style="whiteSpace=wrap;strokeWidth=2;" parent="1" vertex="1">
          <mxGeometry x="164" y="112" width="260" height="78" as="geometry" />
        </mxCell>
        <mxCell id="4" value="Recibir datos de la base de datos" style="whiteSpace=wrap;strokeWidth=2;" parent="1" vertex="1">
          <mxGeometry x="81" y="263" width="260" height="78" as="geometry" />
        </mxCell>
        <mxCell id="5" value="Datos disponibles?" style="rhombus;strokeWidth=2;whiteSpace=wrap;" parent="1" vertex="1">
          <mxGeometry x="119" y="391" width="184" height="184" as="geometry" />
        </mxCell>
        <mxCell id="6" value="Transformar datos" style="whiteSpace=wrap;strokeWidth=2;" parent="1" vertex="1">
          <mxGeometry x="267" y="648" width="190" height="54" as="geometry" />
        </mxCell>
        <mxCell id="7" value="Mostrar mensaje de error" style="whiteSpace=wrap;strokeWidth=2;" parent="1" vertex="1">
          <mxGeometry x="8" y="1297" width="242" height="54" as="geometry" />
        </mxCell>
        <mxCell id="8" value="Renderizar datos en componente ReactJS" style="whiteSpace=wrap;strokeWidth=2;" parent="1" vertex="1">
          <mxGeometry x="232" y="752" width="260" height="78" as="geometry" />
        </mxCell>
        <mxCell id="9" value="End" style="whiteSpace=wrap;strokeWidth=2;" parent="1" vertex="1">
          <mxGeometry x="251" y="1413" width="86" height="54" as="geometry" />
        </mxCell>
        <mxCell id="10" value="Interacción del usuario" style="whiteSpace=wrap;strokeWidth=2;" parent="1" vertex="1">
          <mxGeometry x="250" y="903" width="224" height="54" as="geometry" />
        </mxCell>
        <mxCell id="11" value="¿Requiere más datos?" style="rhombus;strokeWidth=2;whiteSpace=wrap;" parent="1" vertex="1">
          <mxGeometry x="342" y="1007" width="206" height="206" as="geometry" />
        </mxCell>
        <mxCell id="12" value="Fuerza a cerrar componente ReactJS" style="whiteSpace=wrap;strokeWidth=2;" parent="1" vertex="1">
          <mxGeometry x="314" y="1285" width="260" height="78" as="geometry" />
        </mxCell>
        <mxCell id="13" value="" style="curved=1;startArrow=none;endArrow=block;exitX=0.49;exitY=1;entryX=0.5;entryY=0;" parent="1" source="2" target="3" edge="1">
          <mxGeometry relative="1" as="geometry">
            <Array as="points" />
          </mxGeometry>
        </mxCell>
        <mxCell id="14" value="Consulta ejecutada" style="curved=1;startArrow=none;endArrow=block;exitX=0.34;exitY=1;entryX=0.5;entryY=0;" parent="1" source="3" target="4" edge="1">
          <mxGeometry relative="1" as="geometry">
            <Array as="points">
              <mxPoint x="211" y="227" />
            </Array>
          </mxGeometry>
        </mxCell>
        <mxCell id="15" value="" style="curved=1;startArrow=none;endArrow=block;exitX=0.5;exitY=1;entryX=0.5;entryY=0;" parent="1" source="4" target="5" edge="1">
          <mxGeometry relative="1" as="geometry">
            <Array as="points" />
          </mxGeometry>
        </mxCell>
        <mxCell id="16" value="Sí" style="curved=1;startArrow=none;endArrow=block;exitX=1;exitY=0.93;entryX=0.5;entryY=0;" parent="1" source="5" target="6" edge="1">
          <mxGeometry relative="1" as="geometry">
            <Array as="points">
              <mxPoint x="362" y="611" />
            </Array>
          </mxGeometry>
        </mxCell>
        <mxCell id="17" value="No" style="curved=1;startArrow=none;endArrow=block;exitX=0.18;exitY=1;entryX=0.5;entryY=0.01;" parent="1" source="5" target="7" edge="1">
          <mxGeometry relative="1" as="geometry">
            <Array as="points">
              <mxPoint x="129" y="611" />
            </Array>
          </mxGeometry>
        </mxCell>
        <mxCell id="18" value="" style="curved=1;startArrow=none;endArrow=block;exitX=0.5;exitY=1;entryX=0.5;entryY=0;" parent="1" source="6" target="8" edge="1">
          <mxGeometry relative="1" as="geometry">
            <Array as="points" />
          </mxGeometry>
        </mxCell>
        <mxCell id="19" value="" style="curved=1;startArrow=none;endArrow=block;exitX=0.5;exitY=1.01;entryX=0;entryY=0.26;" parent="1" source="7" target="9" edge="1">
          <mxGeometry relative="1" as="geometry">
            <Array as="points">
              <mxPoint x="129" y="1388" />
            </Array>
          </mxGeometry>
        </mxCell>
        <mxCell id="20" value="" style="curved=1;startArrow=none;endArrow=block;exitX=0.5;exitY=1;entryX=0.5;entryY=0;" parent="1" source="8" target="10" edge="1">
          <mxGeometry relative="1" as="geometry">
            <Array as="points" />
          </mxGeometry>
        </mxCell>
        <mxCell id="21" value="" style="curved=1;startArrow=none;endArrow=block;exitX=0.5;exitY=1;entryX=0.18;entryY=0;" parent="1" source="10" target="11" edge="1">
          <mxGeometry relative="1" as="geometry">
            <Array as="points">
              <mxPoint x="362" y="982" />
            </Array>
          </mxGeometry>
        </mxCell>
        <mxCell id="22" value="Sí" style="curved=1;startArrow=none;endArrow=block;exitX=0.82;exitY=0;entryX=0.96;entryY=1;" parent="1" source="11" target="3" edge="1">
          <mxGeometry relative="1" as="geometry">
            <Array as="points">
              <mxPoint x="527" y="982" />
              <mxPoint x="527" y="227" />
            </Array>
          </mxGeometry>
        </mxCell>
        <mxCell id="23" value="No" style="curved=1;startArrow=none;endArrow=block;exitX=0.5;exitY=1;entryX=0.5;entryY=0.01;" parent="1" source="11" target="12" edge="1">
          <mxGeometry relative="1" as="geometry">
            <Array as="points" />
          </mxGeometry>
        </mxCell>
        <mxCell id="24" value="" style="curved=1;startArrow=none;endArrow=block;exitX=0.5;exitY=1.01;entryX=1;entryY=0.23;" parent="1" source="12" target="9" edge="1">
          <mxGeometry relative="1" as="geometry">
            <Array as="points">
              <mxPoint x="444" y="1388" />
            </Array>
          </mxGeometry>
        </mxCell>
      </root>
    </mxGraphModel>
  </diagram>
  <diagram id="LQt8GEanqxTDwnkLdslF" name="Página-2">
    <mxGraphModel dx="1418" dy="3122" grid="1" gridSize="10" guides="1" tooltips="1" connect="1" arrows="1" fold="1" page="1" pageScale="1" pageWidth="1654" pageHeight="2336" math="0" shadow="0">
      <root>
        <mxCell id="0" />
        <mxCell id="1" parent="0" />
        <mxCell id="t6bRnu04maWii4WVPjE0-18" value="" style="edgeStyle=orthogonalEdgeStyle;rounded=0;orthogonalLoop=1;jettySize=auto;html=1;" edge="1" parent="1" source="t6bRnu04maWii4WVPjE0-3">
          <mxGeometry relative="1" as="geometry">
            <mxPoint x="790" y="70" as="targetPoint" />
          </mxGeometry>
        </mxCell>
        <mxCell id="t6bRnu04maWii4WVPjE0-3" value="RDIForm" style="html=1;dropTarget=0;whiteSpace=wrap;" vertex="1" parent="1">
          <mxGeometry x="610" y="40" width="120" height="60" as="geometry" />
        </mxCell>
        <mxCell id="t6bRnu04maWii4WVPjE0-4" value="" style="shape=module;jettyWidth=8;jettyHeight=4;" vertex="1" parent="t6bRnu04maWii4WVPjE0-3">
          <mxGeometry x="1" width="20" height="20" relative="1" as="geometry">
            <mxPoint x="-27" y="7" as="offset" />
          </mxGeometry>
        </mxCell>
        <mxCell id="t6bRnu04maWii4WVPjE0-20" value="" style="edgeStyle=orthogonalEdgeStyle;rounded=0;orthogonalLoop=1;jettySize=auto;html=1;" edge="1" parent="1" source="t6bRnu04maWii4WVPjE0-7">
          <mxGeometry relative="1" as="geometry">
            <mxPoint x="420" y="70" as="targetPoint" />
          </mxGeometry>
        </mxCell>
        <mxCell id="t6bRnu04maWii4WVPjE0-7" value="TabPanel" style="html=1;dropTarget=0;whiteSpace=wrap;" vertex="1" parent="1">
          <mxGeometry x="260" y="40" width="120" height="60" as="geometry" />
        </mxCell>
        <mxCell id="t6bRnu04maWii4WVPjE0-8" value="" style="shape=module;jettyWidth=8;jettyHeight=4;" vertex="1" parent="t6bRnu04maWii4WVPjE0-7">
          <mxGeometry x="1" width="20" height="20" relative="1" as="geometry">
            <mxPoint x="-27" y="7" as="offset" />
          </mxGeometry>
        </mxCell>
        <mxCell id="t6bRnu04maWii4WVPjE0-9" value="" style="edgeStyle=orthogonalEdgeStyle;rounded=0;orthogonalLoop=1;jettySize=auto;html=1;" edge="1" parent="1" source="t6bRnu04maWii4WVPjE0-1" target="t6bRnu04maWii4WVPjE0-7">
          <mxGeometry relative="1" as="geometry" />
        </mxCell>
        <mxCell id="t6bRnu04maWii4WVPjE0-13" style="edgeStyle=orthogonalEdgeStyle;rounded=0;orthogonalLoop=1;jettySize=auto;html=1;exitX=1;exitY=0.75;exitDx=0;exitDy=0;entryX=0;entryY=0.5;entryDx=0;entryDy=0;" edge="1" parent="1" source="t6bRnu04maWii4WVPjE0-1" target="t6bRnu04maWii4WVPjE0-11">
          <mxGeometry relative="1" as="geometry" />
        </mxCell>
        <mxCell id="t6bRnu04maWii4WVPjE0-1" value="TabTools" style="html=1;dropTarget=0;whiteSpace=wrap;" vertex="1" parent="1">
          <mxGeometry x="40" y="100" width="120" height="60" as="geometry" />
        </mxCell>
        <mxCell id="t6bRnu04maWii4WVPjE0-2" value="" style="shape=module;jettyWidth=8;jettyHeight=4;" vertex="1" parent="t6bRnu04maWii4WVPjE0-1">
          <mxGeometry x="1" width="20" height="20" relative="1" as="geometry">
            <mxPoint x="-27" y="7" as="offset" />
          </mxGeometry>
        </mxCell>
        <mxCell id="t6bRnu04maWii4WVPjE0-16" value="" style="edgeStyle=orthogonalEdgeStyle;rounded=0;orthogonalLoop=1;jettySize=auto;html=1;" edge="1" parent="1" source="t6bRnu04maWii4WVPjE0-11" target="t6bRnu04maWii4WVPjE0-14">
          <mxGeometry relative="1" as="geometry" />
        </mxCell>
        <mxCell id="t6bRnu04maWii4WVPjE0-11" value="TabPanel" style="html=1;dropTarget=0;whiteSpace=wrap;" vertex="1" parent="1">
          <mxGeometry x="260" y="400" width="120" height="60" as="geometry" />
        </mxCell>
        <mxCell id="t6bRnu04maWii4WVPjE0-12" value="" style="shape=module;jettyWidth=8;jettyHeight=4;" vertex="1" parent="t6bRnu04maWii4WVPjE0-11">
          <mxGeometry x="1" width="20" height="20" relative="1" as="geometry">
            <mxPoint x="-27" y="7" as="offset" />
          </mxGeometry>
        </mxCell>
        <mxCell id="t6bRnu04maWii4WVPjE0-14" value="DashboardTab" style="html=1;dropTarget=0;whiteSpace=wrap;" vertex="1" parent="1">
          <mxGeometry x="430" y="400" width="120" height="60" as="geometry" />
        </mxCell>
        <mxCell id="t6bRnu04maWii4WVPjE0-15" value="" style="shape=module;jettyWidth=8;jettyHeight=4;" vertex="1" parent="t6bRnu04maWii4WVPjE0-14">
          <mxGeometry x="1" width="20" height="20" relative="1" as="geometry">
            <mxPoint x="-27" y="7" as="offset" />
          </mxGeometry>
        </mxCell>
        <mxCell id="t6bRnu04maWii4WVPjE0-21" value="isEditing" style="rhombus;whiteSpace=wrap;html=1;fontColor=#000000;fillColor=#ffffc0;strokeColor=#ff0000;" vertex="1" parent="1">
          <mxGeometry x="790" y="50" width="80" height="40" as="geometry" />
        </mxCell>
        <mxCell id="t6bRnu04maWii4WVPjE0-22" value="no" style="edgeStyle=orthogonalEdgeStyle;html=1;align=left;verticalAlign=bottom;endArrow=open;endSize=8;strokeColor=#ff0000;rounded=0;" edge="1" source="t6bRnu04maWii4WVPjE0-21" parent="1">
          <mxGeometry x="-1" relative="1" as="geometry">
            <mxPoint x="940" y="70" as="targetPoint" />
          </mxGeometry>
        </mxCell>
        <mxCell id="t6bRnu04maWii4WVPjE0-23" value="yes" style="edgeStyle=orthogonalEdgeStyle;html=1;align=left;verticalAlign=top;endArrow=open;endSize=8;strokeColor=#ff0000;rounded=0;" edge="1" source="t6bRnu04maWii4WVPjE0-21" parent="1">
          <mxGeometry x="-1" relative="1" as="geometry">
            <mxPoint x="830.5" y="140" as="targetPoint" />
            <Array as="points">
              <mxPoint x="829.5" y="115" />
              <mxPoint x="830.5" y="115" />
            </Array>
          </mxGeometry>
        </mxCell>
        <mxCell id="t6bRnu04maWii4WVPjE0-24" value="&lt;div&gt;&lt;font style=&quot;font-size: 10px;&quot;&gt;BTN&lt;/font&gt;&lt;/div&gt;&lt;font style=&quot;font-size: 10px;&quot;&gt;ActualizarSnapShot&lt;/font&gt;&lt;div&gt;&lt;font style=&quot;font-size: 10px;&quot;&gt;/&lt;/font&gt;&lt;/div&gt;&lt;div&gt;&lt;font style=&quot;font-size: 10px;&quot;&gt;AgregarSnapShot&lt;/font&gt;&lt;/div&gt;" style="rounded=1;whiteSpace=wrap;html=1;absoluteArcSize=1;arcSize=14;strokeWidth=2;" vertex="1" parent="1">
          <mxGeometry x="710" y="-70" width="100" height="70" as="geometry" />
        </mxCell>
        <mxCell id="t6bRnu04maWii4WVPjE0-27" value="" style="edgeStyle=orthogonalEdgeStyle;rounded=0;orthogonalLoop=1;jettySize=auto;html=1;" edge="1" parent="1" source="t6bRnu04maWii4WVPjE0-25">
          <mxGeometry relative="1" as="geometry">
            <mxPoint x="610" y="70" as="targetPoint" />
          </mxGeometry>
        </mxCell>
        <mxCell id="t6bRnu04maWii4WVPjE0-25" value="&lt;div&gt;&lt;font style=&quot;font-size: 10px;&quot;&gt;BTN&lt;/font&gt;&lt;/div&gt;&lt;br&gt;&lt;div&gt;&lt;span style=&quot;font-size: 10px;&quot;&gt;Agregar RDI&lt;/span&gt;&lt;/div&gt;" style="rounded=1;whiteSpace=wrap;html=1;absoluteArcSize=1;arcSize=14;strokeWidth=2;strokeColor=light-dark(#000000,#00CC00);" vertex="1" parent="1">
          <mxGeometry x="420" y="35" width="100" height="70" as="geometry" />
        </mxCell>
        <mxCell id="t6bRnu04maWii4WVPjE0-28" value="&lt;div&gt;&lt;font style=&quot;font-size: 10px;&quot;&gt;BTN&lt;/font&gt;&lt;/div&gt;&lt;div&gt;&lt;span style=&quot;font-size: 10px;&quot;&gt;Guardar&lt;/span&gt;&lt;/div&gt;" style="rounded=1;whiteSpace=wrap;html=1;absoluteArcSize=1;arcSize=14;strokeWidth=2;strokeColor=light-dark(#000000,#00CC00);" vertex="1" parent="1">
          <mxGeometry x="780" y="140" width="100" height="50" as="geometry" />
        </mxCell>
        <mxCell id="t6bRnu04maWii4WVPjE0-29" value="&lt;div&gt;&lt;font style=&quot;font-size: 10px;&quot;&gt;BTN&lt;/font&gt;&lt;/div&gt;&lt;div&gt;&lt;span style=&quot;font-size: 10px;&quot;&gt;Aceptar&lt;/span&gt;&lt;/div&gt;" style="rounded=1;whiteSpace=wrap;html=1;absoluteArcSize=1;arcSize=14;strokeWidth=2;strokeColor=light-dark(#000000,#00CC00);" vertex="1" parent="1">
          <mxGeometry x="940" y="45" width="100" height="50" as="geometry" />
        </mxCell>
      </root>
    </mxGraphModel>
  </diagram>
</mxfile>
